<svg viewBox="0 0 220 220" fill="none" xmlns="http://www.w3.org/2000/svg">
<path d="M0 44C0 19.6995 19.6995 0 44 0H176C200.301 0 220 19.6995 220 44V176C220 200.301 200.301 220 176 220H44C19.6995 220 0 200.301 0 176V44Z" fill="url(#paint0_linear_5402_10171)"/>
<path d="M121.374 166.298C110.579 166.298 102.835 163.188 98.142 156.97C93.566 150.751 91.278 142.596 91.278 132.506V97.1296H79.31V77.9456L92.686 76.8896L95.678 53.6576H117.15V76.8896H138.094V97.1296H117.15V132.154C117.15 137.082 118.147 140.66 120.142 142.89C122.254 145.002 125.011 146.058 128.414 146.058C129.822 146.058 131.23 145.882 132.638 145.53C134.163 145.178 135.513 144.767 136.686 144.298L140.734 163.13C138.505 163.834 135.747 164.538 132.462 165.242C129.294 165.946 125.598 166.298 121.374 166.298Z" fill="white"/>
<path d="M173.696 166.298C165.717 166.298 159.381 163.775 154.688 158.73C149.994 153.567 147.648 147.29 147.648 139.898C147.648 130.746 151.52 123.588 159.264 118.426C167.008 113.263 179.504 109.802 196.752 108.042C196.517 104.17 195.344 101.119 193.232 98.8896C191.237 96.5429 187.834 95.3696 183.024 95.3696C179.386 95.3696 175.69 96.0736 171.936 97.4816C168.181 98.8896 164.192 100.826 159.968 103.29L150.64 86.2176C156.154 82.8149 162.021 80.0576 168.24 77.9456C174.576 75.8336 181.146 74.7776 187.952 74.7776C199.098 74.7776 207.664 78.0042 213.648 84.4576C219.632 90.9109 222.624 100.826 222.624 114.202V164.186H201.504L199.744 155.21H199.04C195.402 158.495 191.472 161.194 187.248 163.306C183.141 165.3 178.624 166.298 173.696 166.298ZM182.496 146.234C185.429 146.234 187.952 145.588 190.064 144.298C192.293 142.89 194.522 141.071 196.752 138.842V123.53C187.6 124.703 181.264 126.58 177.744 129.162C174.224 131.626 172.464 134.559 172.464 137.962C172.464 140.778 173.344 142.89 175.104 144.298C176.981 145.588 179.445 146.234 182.496 146.234Z" fill="white"/>
<defs>
<linearGradient id="paint0_linear_5402_10171" x1="340.851" y1="0" x2="340.851" y2="220" gradientUnits="userSpaceOnUse">
<stop stop-color="#D51010"/>
<stop offset="1" stop-color="#A60C0C"/>
</linearGradient>
</defs>
</svg>
