<svg width="233" height="168" viewBox="0 0 233 168" fill="none" xmlns="http://www.w3.org/2000/svg">
<path d="M211.274 0H8.56255C3.83359 0 0 3.83779 0 8.57195V159.428C0 164.162 3.83359 168 8.56255 168H211.274C216.003 168 219.836 164.162 219.836 159.428V8.57195C219.836 3.83779 216.003 0 211.274 0Z" fill="#ECECEC"/>
<path d="M8.5638 1.96973C4.92787 1.96973 1.96875 4.93209 1.96875 8.57202V159.424C1.96875 163.064 4.92787 166.026 8.5638 166.026H211.275C214.911 166.026 217.87 163.064 217.87 159.424V8.57202C217.87 4.93209 214.911 1.96973 211.275 1.96973H8.5638Z" fill="white"/>
<path d="M110.699 1.00391H109.129V167.18H110.699V1.00391Z" fill="#ECECEC"/>
<path d="M100.583 28.0598C101.811 28.0598 102.806 27.0633 102.806 25.8341C102.806 24.6049 101.811 23.6084 100.583 23.6084C99.3548 23.6084 98.3594 24.6049 98.3594 25.8341C98.3594 27.0633 99.3548 28.0598 100.583 28.0598Z" fill="#ECECEC"/>
<path d="M119.251 28.0598C120.479 28.0598 121.474 27.0633 121.474 25.8341C121.474 24.6049 120.479 23.6084 119.251 23.6084C118.023 23.6084 117.027 24.6049 117.027 25.8341C117.027 27.0633 118.023 28.0598 119.251 28.0598Z" fill="#ECECEC"/>
<path d="M100.583 57.1438C101.811 57.1438 102.806 56.1473 102.806 54.9181C102.806 53.6889 101.811 52.6924 100.583 52.6924C99.3548 52.6924 98.3594 53.6889 98.3594 54.9181C98.3594 56.1473 99.3548 57.1438 100.583 57.1438Z" fill="#ECECEC"/>
<path d="M119.251 57.1438C120.479 57.1438 121.474 56.1473 121.474 54.9181C121.474 53.6889 120.479 52.6924 119.251 52.6924C118.023 52.6924 117.027 53.6889 117.027 54.9181C117.027 56.1473 118.023 57.1438 119.251 57.1438Z" fill="#ECECEC"/>
<path d="M100.583 86.2239C101.811 86.2239 102.806 85.2274 102.806 83.9982C102.806 82.7689 101.811 81.7725 100.583 81.7725C99.3548 81.7725 98.3594 82.7689 98.3594 83.9982C98.3594 85.2274 99.3548 86.2239 100.583 86.2239Z" fill="#ECECEC"/>
<path d="M119.251 86.2239C120.479 86.2239 121.474 85.2274 121.474 83.9982C121.474 82.7689 120.479 81.7725 119.251 81.7725C118.023 81.7725 117.027 82.7689 117.027 83.9982C117.027 85.2274 118.023 86.2239 119.251 86.2239Z" fill="#ECECEC"/>
<path d="M100.583 115.308C101.811 115.308 102.806 114.311 102.806 113.082C102.806 111.853 101.811 110.856 100.583 110.856C99.3548 110.856 98.3594 111.853 98.3594 113.082C98.3594 114.311 99.3548 115.308 100.583 115.308Z" fill="#ECECEC"/>
<path d="M119.251 115.308C120.479 115.308 121.474 114.311 121.474 113.082C121.474 111.853 120.479 110.856 119.251 110.856C118.023 110.856 117.027 111.853 117.027 113.082C117.027 114.311 118.023 115.308 119.251 115.308Z" fill="#ECECEC"/>
<path d="M100.583 144.388C101.811 144.388 102.806 143.391 102.806 142.162C102.806 140.933 101.811 139.937 100.583 139.937C99.3548 139.937 98.3594 140.933 98.3594 142.162C98.3594 143.391 99.3548 144.388 100.583 144.388Z" fill="#ECECEC"/>
<path d="M119.251 144.388C120.479 144.388 121.474 143.391 121.474 142.162C121.474 140.933 120.479 139.937 119.251 139.937C118.023 139.937 117.027 140.933 117.027 142.162C117.027 143.391 118.023 144.388 119.251 144.388Z" fill="#ECECEC"/>
<path d="M100.788 24.8065L100.375 24.1368C100.477 24.0738 110.645 17.9245 119.475 24.1487L119.023 24.7947C110.618 18.87 100.883 24.7474 100.788 24.8065Z" fill="#ECECEC"/>
<path d="M100.788 27.535L100.375 26.8654C100.477 26.8023 110.645 20.6531 119.475 26.8772L119.023 27.5232C110.618 21.5985 100.883 27.476 100.788 27.535Z" fill="#ECECEC"/>
<path d="M100.788 54.0155L100.375 53.3458C100.477 53.2828 110.645 47.1335 119.475 53.3576L119.023 54.0037C110.618 48.079 100.883 53.9564 100.788 54.0155Z" fill="#ECECEC"/>
<path d="M100.788 56.7499L100.375 56.0802C100.477 56.0172 110.645 49.8679 119.475 56.092L119.023 56.7381C110.618 50.8133 100.883 56.6908 100.788 56.7499Z" fill="#ECECEC"/>
<path d="M100.788 83.2265L100.375 82.5568C100.477 82.4937 110.645 76.3445 119.475 82.5686L119.023 83.2146C110.618 77.2899 100.883 83.1674 100.788 83.2265Z" fill="#ECECEC"/>
<path d="M100.788 85.9599L100.375 85.2902C100.477 85.2271 110.641 79.0779 119.475 85.302L119.023 85.948C110.618 80.0233 100.883 85.9008 100.788 85.9599Z" fill="#ECECEC"/>
<path d="M100.788 112.435L100.375 111.766C100.477 111.703 110.645 105.553 119.475 111.778L119.023 112.424C110.618 106.503 100.883 112.376 100.788 112.435Z" fill="#ECECEC"/>
<path d="M100.788 115.17L100.375 114.5C100.477 114.437 110.641 108.288 119.475 114.512L119.023 115.158C110.618 109.233 100.883 115.111 100.788 115.17Z" fill="#ECECEC"/>
<path d="M100.788 141.646L100.375 140.977C100.477 140.914 110.645 134.764 119.475 140.989L119.023 141.631C110.618 135.706 100.883 141.583 100.788 141.642V141.646Z" fill="#ECECEC"/>
<path d="M100.788 144.38L100.375 143.71C100.477 143.647 110.645 137.498 119.475 143.722L119.023 144.364C110.618 138.439 100.883 144.317 100.788 144.376V144.38Z" fill="#ECECEC"/>
<path d="M20.4119 29.8993C28.4983 29.5881 36.5926 29.4542 44.6869 29.5015C52.7812 29.5487 60.7417 29.7733 68.7573 30.179C73.3218 30.4075 77.8786 30.6951 82.4353 31.0417C83.1948 31.1008 83.1908 29.9151 82.4353 29.8599C74.3646 29.2494 66.2821 28.82 58.1918 28.5678C50.1014 28.3157 42.137 28.2527 34.1096 28.3591C29.5411 28.4221 24.9726 28.5403 20.408 28.7175C19.6524 28.7451 19.6485 29.9269 20.408 29.8993H20.4119Z" fill="#F25959"/>
<path d="M20.144 110.722C26.5419 110.409 32.946 110.273 39.3502 110.321C45.7543 110.369 52.0526 110.595 58.3944 111.004C62.0059 111.235 65.6111 111.525 69.2164 111.875C69.8172 111.934 69.8141 110.738 69.2164 110.683C62.8309 110.067 56.4361 109.634 50.0351 109.38C43.6341 109.125 37.3327 109.062 30.9815 109.169C27.3669 109.233 23.7524 109.352 20.1409 109.531C19.5431 109.558 19.54 110.75 20.1409 110.722H20.144Z" fill="#F25959"/>
<path d="M20.4119 43.2695C28.4983 42.9582 36.5926 42.8243 44.6869 42.8716C52.7812 42.9189 60.7417 43.1434 68.7573 43.5491C73.3218 43.7776 77.8786 44.0652 82.4353 44.4119C83.1948 44.4709 83.1908 43.2852 82.4353 43.2301C74.3646 42.6195 66.2821 42.1901 58.1918 41.938C50.1014 41.6859 42.137 41.6228 34.1096 41.7292C29.5411 41.7922 24.9726 41.9104 20.408 42.0877C19.6524 42.1152 19.6485 43.297 20.408 43.2695H20.4119Z" fill="#393939"/>
<path d="M139.494 69.3456C147.58 69.0344 155.675 68.9005 163.769 68.9478C171.863 68.995 179.824 69.2196 187.839 69.6253C192.404 69.8538 196.961 70.1414 201.517 70.488C202.277 70.5471 202.273 69.3614 201.517 69.3062C193.447 68.6956 185.364 68.2663 177.274 68.0141C169.183 67.762 161.219 67.699 153.192 67.8054C148.623 67.8684 144.055 67.9866 139.49 68.1638C138.734 68.1914 138.731 69.3732 139.49 69.3456H139.494Z" fill="#F25959"/>
<path d="M139.494 82.7167C147.58 82.4055 155.675 82.2716 163.769 82.3189C171.863 82.3661 179.824 82.5907 187.839 82.9964C192.404 83.2249 196.961 83.5125 201.517 83.8591C202.277 83.9182 202.273 82.7325 201.517 82.6773C193.447 82.0667 185.364 81.6373 177.274 81.3852C169.183 81.1331 161.219 81.0701 153.192 81.1764C148.623 81.2395 144.055 81.3577 139.49 81.5349C138.734 81.5625 138.731 82.7443 139.49 82.7167H139.494Z" fill="#393939"/>
<path d="M20.4119 56.6389C26.9754 56.3829 33.5429 56.0914 40.1144 55.9771C45.7336 55.8786 51.3527 55.9692 56.964 56.2411C60.9659 56.4341 64.9639 56.7059 68.9619 57.0053C69.7213 57.0644 69.7174 55.8786 68.9619 55.8235C62.414 55.3271 55.8583 54.9214 49.2908 54.7953C43.6716 54.689 38.0485 54.8111 32.4333 55.0002C28.4275 55.1381 24.4216 55.2996 20.4119 55.4571C19.6563 55.4847 19.6524 56.6665 20.4119 56.6389Z" fill="#393939"/>
<path d="M20.4118 70.0093C27.361 69.7414 34.3142 69.4578 41.2673 69.3553C47.4925 69.2608 53.7216 69.3435 59.9428 69.6272C64.0864 69.8162 68.226 70.0802 72.3656 70.3953C73.125 70.4544 73.1211 69.2687 72.3656 69.2135C65.4321 68.6896 58.4908 68.2996 51.5416 68.1814C45.3125 68.0711 39.0834 68.1814 32.8582 68.3784C28.7107 68.5084 24.5633 68.6699 20.4158 68.8314C19.6603 68.859 19.6563 70.0408 20.4158 70.0132L20.4118 70.0093Z" fill="#393939"/>
<path d="M20.4119 83.3758C26.7315 83.1315 33.0432 82.7455 39.3589 82.45C44.5767 82.2058 49.7945 82.1231 55.0162 82.2964C58.9276 82.4264 62.8351 82.6706 66.7346 82.9661C67.4941 83.0252 67.4902 81.8394 66.7346 81.7843C60.4386 81.3076 54.1348 80.9728 47.8191 81.0201C42.5895 81.0595 37.3717 81.3628 32.1539 81.6425C28.2425 81.8513 24.3272 82.0404 20.4119 82.194C19.6563 82.2216 19.6524 83.4073 20.4119 83.3758Z" fill="#393939"/>
<path d="M20.4119 96.746C28.4983 96.4348 36.5926 96.3009 44.6869 96.3481C52.7812 96.3954 60.7417 96.62 68.7573 97.0257C73.3218 97.2542 77.8786 97.5418 82.4353 97.8884C83.1948 97.9475 83.1908 96.7618 82.4353 96.7066C74.3646 96.096 66.2821 95.6666 58.1918 95.4145C50.1014 95.1624 42.137 95.0994 34.1096 95.2057C29.5411 95.2688 24.9726 95.387 20.408 95.5642C19.6524 95.5918 19.6485 96.7736 20.408 96.746H20.4119Z" fill="#393939"/>
<path d="M139.494 31.4165C146.443 31.1486 153.396 30.865 160.349 30.7626C166.575 30.668 172.804 30.7508 179.025 31.0344C183.168 31.2235 187.308 31.4874 191.448 31.8026C192.207 31.8616 192.203 30.6759 191.448 30.6208C184.514 30.0968 177.573 29.7068 170.624 29.5887C164.395 29.4784 158.165 29.5887 151.94 29.7856C147.793 29.9156 143.645 30.0771 139.498 30.2386C138.742 30.2662 138.738 31.448 139.498 31.4204L139.494 31.4165Z" fill="#393939"/>
<path d="M139.494 44.783C145.814 44.5388 152.125 44.1527 158.441 43.8573C163.659 43.613 168.877 43.5303 174.098 43.7036C178.01 43.8336 181.917 44.0779 185.817 44.3733C186.576 44.4324 186.572 43.2467 185.817 43.1915C179.521 42.7149 173.217 42.38 166.901 42.4273C161.672 42.4667 156.454 42.77 151.236 43.0497C147.325 43.2585 143.409 43.4476 139.494 43.6012C138.738 43.6288 138.734 44.8145 139.494 44.783Z" fill="#393939"/>
<path d="M139.494 58.1523C147.58 57.8411 155.675 57.7071 163.769 57.7544C171.863 57.8017 179.824 58.0262 187.839 58.432C192.404 58.6604 196.961 58.948 201.517 59.2947C202.277 59.3538 202.273 58.168 201.517 58.1129C193.447 57.5023 185.364 57.0729 177.274 56.8208C169.183 56.5687 161.219 56.5056 153.192 56.612C148.623 56.675 144.055 56.7932 139.49 56.9705C138.734 56.998 138.731 58.1798 139.49 58.1523H139.494Z" fill="#393939"/>
<path d="M13.2128 31.0663C13.0944 31.0666 12.9791 31.0294 12.8843 30.9605L12.8784 30.9562L11.6411 30.0371C11.5838 29.9945 11.5358 29.9414 11.4996 29.8808C11.4635 29.8202 11.44 29.7532 11.4305 29.6838C11.4211 29.6144 11.4258 29.5438 11.4444 29.4761C11.463 29.4085 11.4952 29.345 11.5391 29.2894C11.583 29.2339 11.6378 29.1872 11.7003 29.1521C11.7628 29.1171 11.8318 29.0943 11.9033 29.0851C11.9749 29.0759 12.0476 29.0805 12.1174 29.0986C12.1871 29.1167 12.2525 29.1479 12.3098 29.1905L13.1112 29.7867L15.005 27.3904C15.049 27.3349 15.1037 27.2882 15.1662 27.2532C15.2287 27.2181 15.2978 27.1954 15.3693 27.1862C15.4409 27.1771 15.5136 27.1817 15.5833 27.1998C15.6531 27.2179 15.7185 27.2491 15.7757 27.2917L15.764 27.3073L15.776 27.292C15.8916 27.3781 15.9672 27.5052 15.9863 27.6454C16.0053 27.7856 15.9663 27.9274 15.8778 28.0397L13.6502 30.8582C13.5986 30.9232 13.5324 30.9757 13.4565 31.0118C13.3807 31.0479 13.2973 31.0666 13.2128 31.0663Z" fill="#F25959"/>
<path d="M13.2128 111.822C13.0944 111.822 12.9791 111.785 12.8843 111.716L12.8784 111.712L11.6411 110.793C11.5838 110.75 11.5358 110.697 11.4996 110.637C11.4635 110.576 11.44 110.509 11.4305 110.44C11.4211 110.37 11.4258 110.3 11.4444 110.232C11.463 110.164 11.4952 110.101 11.5391 110.045C11.583 109.99 11.6378 109.943 11.7003 109.908C11.7628 109.873 11.8318 109.85 11.9033 109.841C11.9749 109.832 12.0476 109.836 12.1174 109.854C12.1871 109.873 12.2525 109.904 12.3098 109.946L13.1112 110.543L15.005 108.146C15.049 108.091 15.1037 108.044 15.1662 108.009C15.2287 107.974 15.2978 107.951 15.3693 107.942C15.4409 107.933 15.5136 107.938 15.5833 107.956C15.6531 107.974 15.7185 108.005 15.7757 108.048L15.764 108.063L15.776 108.048C15.8916 108.134 15.9672 108.261 15.9863 108.401C16.0053 108.541 15.9663 108.683 15.8778 108.796L13.6502 111.614C13.5986 111.679 13.5324 111.732 13.4565 111.768C13.3807 111.804 13.2973 111.822 13.2128 111.822Z" fill="#F25959"/>
<path d="M132.838 70.0654C132.719 70.0656 132.604 70.0284 132.509 69.9595L132.503 69.9552L131.266 69.0362C131.209 68.9936 131.161 68.9404 131.125 68.8798C131.088 68.8192 131.065 68.7522 131.056 68.6828C131.046 68.6134 131.051 68.5428 131.069 68.4752C131.088 68.4075 131.12 68.3441 131.164 68.2885C131.208 68.2329 131.263 68.1862 131.325 68.1512C131.388 68.1161 131.457 68.0933 131.528 68.0841C131.6 68.0749 131.673 68.0795 131.742 68.0976C131.812 68.1157 131.877 68.1469 131.935 68.1895L132.736 68.7857L134.63 66.3895C134.674 66.3339 134.729 66.2872 134.791 66.2522C134.854 66.2172 134.923 66.1944 134.994 66.1853C135.066 66.1761 135.139 66.1807 135.208 66.1988C135.278 66.2169 135.343 66.2481 135.401 66.2908L135.389 66.3063L135.401 66.291C135.517 66.3771 135.592 66.5043 135.611 66.6444C135.63 66.7846 135.591 66.9264 135.503 67.0387L133.275 69.8572C133.224 69.9222 133.157 69.9747 133.082 70.0108C133.006 70.0469 132.922 70.0656 132.838 70.0654Z" fill="#F25959"/>
<path d="M148.884 90.3804L227.767 32.4036C228.699 31.7134 230.005 31.933 230.689 32.8742L232.6 35.5252C233.284 36.4664 233.066 37.784 232.134 38.4742L153.267 96.451H153.251L142.793 101L142 99.902L148.884 90.3804Z" fill="#393939"/>
</svg>
